<svg xmlns="http://www.w3.org/2000/svg" version="1.1" xmlns:xlink="http://www.w3.org/1999/xlink" xmlns:svgjs="http://svgjs.dev/svgjs" width="2000" height="575" viewBox="0 0 2000 575"><g transform="matrix(1,0,0,1,-1.2121212121212466,0.7053786098034607)"><svg viewBox="0 0 396 114" data-background-color="#ffffff" preserveAspectRatio="xMidYMid meet" height="575" width="2000" xmlns="http://www.w3.org/2000/svg" xmlns:xlink="http://www.w3.org/1999/xlink"><g id="tight-bounds" transform="matrix(1,0,0,1,0.2400000000000091,-0.13984897655234363)"><svg viewBox="0 0 395.52 114.27969795310467" height="114.27969795310467" width="395.52"><g><svg viewBox="0 0 589.1623226322993 170.22980449981992" height="114.27969795310467" width="395.52"><g transform="matrix(1,0,0,1,193.6423226322993,52.6034804585005)"><svg viewBox="0 0 395.52 65.02284358281892" height="65.02284358281892" width="395.52"><g id="textblocktransform"><svg viewBox="0 0 395.52 65.02284358281892" height="65.02284358281892" width="395.52" id="textblock"><g><svg viewBox="0 0 395.52 65.02284358281892" height="65.02284358281892" width="395.52"><g transform="matrix(1,0,0,1,0,0)"><svg width="395.52" viewBox="1.67609375 -32.4 200.40390625 32.949999999999996" height="65.02284358281892" data-palette-color="#6936f5"><path d="M8.85-32.1L8.85-32.1Q9.45-32.1 10.98-32.13 12.5-32.15 14.48-32.2 16.45-32.25 18.5-32.27 20.55-32.3 22.23-32.35 23.9-32.4 24.75-32.4L24.75-32.4Q25-30.55 25.4-28.7 25.8-26.85 26.15-25.2L26.15-25.2Q26.05-25.1 25.65-25.03 25.25-24.95 25-24.95L25-24.95Q24.4-24.95 24.25-25.35L24.25-25.35Q23.45-27.4 22.33-28.83 21.2-30.25 18.95-30.25L18.95-30.25 14.9-30.25Q14.1-30.25 13.38-30.18 12.65-30.1 12.45-29.7L12.45-29.7Q12.3-29.3 12.28-28.7 12.25-28.1 12.25-27.3L12.25-27.3Q12.25-27.15 12.25-27 12.25-26.85 12.25-26.7L12.25-26.7 12.25-17.95Q12.25-17.75 12.9-17.6 13.55-17.45 14.35-17.45L14.35-17.45 16.9-17.45Q18.35-17.45 19.13-17.7 19.9-17.95 20.35-18.7 20.8-19.45 21.2-20.85L21.2-20.85Q21.3-21.25 21.8-21.25L21.8-21.25Q22.45-21.25 22.7-21L22.7-21 22.7-11.6Q22.65-11.55 22.38-11.5 22.1-11.45 21.85-11.45L21.85-11.45Q21.2-11.45 21.15-11.8L21.15-11.8Q20.7-13.55 20.25-14.1 19.8-14.65 19.45-14.8L19.45-14.8Q18.6-15.15 15.75-15.15L15.75-15.15Q15.1-15.15 14.28-15.1 13.45-15.05 12.85-14.9 12.25-14.75 12.25-14.45L12.25-14.45 12.25-6.9Q12.25-6.9 12.25-6.8L12.25-6.8Q12.25-6.55 12.25-5.83 12.25-5.1 12.33-4.3 12.4-3.5 12.6-3.05L12.6-3.05Q12.85-2.55 13.85-2.3 14.85-2.05 15.8-2.05L15.8-2.05 19-2.05Q20.4-2.05 21.58-2.45 22.75-2.85 23.55-3.65L23.55-3.65Q24.35-4.45 24.95-5.55 25.55-6.65 26.2-8.3L26.2-8.3Q26.3-8.6 26.85-8.6L26.85-8.6Q27.25-8.6 27.75-8.5 28.25-8.4 28.35-8.3L28.35-8.3Q27.9-7 27.35-5.45 26.8-3.9 26.35-2.45 25.9-1 25.7 0.1L25.7 0.1Q25.2 0.1 23.4 0.1 21.6 0.1 19.05 0.1 16.5 0.1 13.73 0.1 10.95 0.1 8.43 0.1 5.9 0.1 4.13 0.13 2.35 0.15 1.85 0.15L1.85 0.15Q1.7-0.1 1.68-0.75 1.65-1.4 1.85-1.65L1.85-1.65Q2.2-1.7 2.9-1.78 3.6-1.85 4.25-2.02 4.9-2.2 5-2.5L5-2.5Q5.3-3.25 5.35-4.4 5.4-5.55 5.4-7.1L5.4-7.1 5.4-25.05Q5.4-26.65 5.35-27.78 5.3-28.9 5-29.65L5-29.65Q4.9-30 4.25-30.15 3.6-30.3 2.9-30.35 2.2-30.4 1.85-30.4L1.85-30.4Q1.65-30.65 1.68-31.35 1.7-32.05 1.85-32.25L1.85-32.25Q3.5-32.15 5.4-32.13 7.3-32.1 8.85-32.1ZM34.5-21.3L34.5-21.3Q36.05-21.3 37.9-21.43 39.75-21.55 40.65-21.65L40.65-21.65Q40.85-21.45 40.85-20.75 40.85-20.05 40.65-19.8L40.65-19.8Q40.35-19.8 39.65-19.65 38.95-19.5 38.35-19.23 37.75-18.95 37.75-18.5L37.75-18.5Q37.75-18.4 37.77-18.18 37.8-17.95 37.85-17.75L37.85-17.75Q38.5-16.5 39.35-14.85 40.2-13.2 41.02-11.68 41.85-10.15 42.37-9.15 42.9-8.15 42.9-8.15L42.9-8.15Q42.9-8.15 43.27-8.97 43.65-9.8 44.22-11.08 44.8-12.35 45.47-13.85 46.15-15.35 46.75-16.7L46.75-16.7Q46.95-17.1 47.1-17.6 47.25-18.1 47.25-18.5L47.25-18.5Q47.25-19.1 46.47-19.38 45.7-19.65 44.85-19.73 44-19.8 43.8-19.8L43.8-19.8Q43.6-20 43.6-20.7 43.6-21.4 43.75-21.65L43.75-21.65Q44.85-21.5 46.17-21.4 47.5-21.3 48.9-21.3L48.9-21.3Q50.45-21.3 51.92-21.45 53.4-21.6 53.95-21.65L53.95-21.65Q54.1-21.45 54.12-20.75 54.15-20.05 53.95-19.8L53.95-19.8Q53.65-19.8 52.82-19.7 52-19.6 51.17-19.25 50.35-18.9 50-18.2L50-18.2 42.5-2.2Q41.05 0.55 40.3 0.55L40.3 0.55Q40.2 0.55 40 0.4 39.8 0.25 39.7 0.15L39.7 0.15Q37.55-4.25 35.47-8.58 33.4-12.9 30.95-17.95L30.95-17.95Q30.65-18.7 29.97-19.1 29.3-19.5 28.7-19.65 28.1-19.8 27.9-19.8L27.9-19.8Q27.7-20.1 27.72-20.78 27.75-21.45 27.9-21.65L27.9-21.65Q28.55-21.6 29.75-21.5 30.95-21.4 32.25-21.35 33.55-21.3 34.5-21.3ZM60.75-11.8L60.75-11.8Q60.75-9.25 61.5-7.63 62.25-6 63.35-5.15 64.45-4.3 65.62-3.98 66.8-3.65 67.59-3.65L67.59-3.65Q69.75-3.65 71-4.48 72.25-5.3 73.05-6.1L73.05-6.1Q73.3-6.05 73.47-5.75 73.65-5.45 73.65-5.2L73.65-5.2Q73.65-4.55 73.5-4.3L73.5-4.3Q73.05-3.65 71.84-2.5 70.65-1.35 68.82-0.45 67 0.45 64.65 0.45L64.65 0.45Q61.95 0.45 59.6-0.78 57.25-2 55.82-4.28 54.4-6.55 54.4-9.75L54.4-9.75Q54.4-12.05 55.3-14.23 56.2-16.4 57.72-18.13 59.25-19.85 61.2-20.85 63.15-21.85 65.25-21.85L65.25-21.85Q67.65-21.85 69.3-21.1 70.95-20.35 71.92-19.2 72.9-18.05 73.34-16.78 73.8-15.5 73.8-14.45L73.8-14.45Q73.8-13.65 73.42-13.05 73.05-12.45 72.5-12.4L72.5-12.4Q70.84-12.25 68.8-12.13 66.75-12 64.65-11.93 62.55-11.85 60.75-11.8ZM60.8-13.75L60.8-13.75Q60.95-13.75 61.77-13.78 62.6-13.8 63.67-13.88 64.75-13.95 65.7-14.03 66.65-14.1 67.09-14.15L67.09-14.15Q67.55-14.2 67.65-14.48 67.75-14.75 67.75-14.95L67.75-14.95Q67.75-16.1 67.45-17.2 67.15-18.3 66.5-19.05 65.84-19.8 64.75-19.8L64.75-19.8Q63.65-19.8 62.9-19.1 62.15-18.4 61.67-17.4 61.2-16.4 61-15.38 60.8-14.35 60.8-13.75ZM93.84-21.8L93.84-21.8Q96.64-21.8 98.07-20.53 99.49-19.25 99.99-16.68 100.49-14.1 100.49-10.25L100.49-10.25 100.49-7.1Q100.49-5.55 100.54-4.4 100.59-3.25 100.89-2.5L100.89-2.5Q101.04-2.2 101.67-2 102.29-1.8 103.02-1.73 103.74-1.65 104.04-1.6L104.04-1.6Q104.24-1.35 104.22-0.7 104.19-0.05 104.04 0.2L104.04 0.2Q102.64 0.05 100.77-0.05 98.89-0.15 97.34-0.15L97.34-0.15Q95.79-0.15 94.24-0.05 92.69 0.05 91.24 0.2L91.24 0.2Q91.09-0.05 91.07-0.7 91.04-1.35 91.24-1.6L91.24-1.6Q91.74-1.65 92.67-1.83 93.59-2 93.79-2.5L93.79-2.5Q94.04-3.15 94.09-4.15 94.14-5.15 94.14-6.45L94.14-6.45Q94.14-6.6 94.14-6.78 94.14-6.95 94.14-7.1L94.14-7.1 94.14-10.95Q94.14-12.7 93.87-14.28 93.59-15.85 92.89-16.82 92.19-17.8 90.89-17.8L90.89-17.8Q89.94-17.8 88.94-17.32 87.94-16.85 87.27-16.23 86.59-15.6 86.59-15.1L86.59-15.1 86.59-7.1Q86.59-5.75 86.64-4.5 86.69-3.25 86.99-2.5L86.99-2.5Q87.14-2.2 87.67-2 88.19-1.8 88.82-1.73 89.44-1.65 89.74-1.6L89.74-1.6Q89.94-1.35 89.92-0.7 89.89-0.05 89.74 0.2L89.74 0.2Q88.34 0.05 86.64-0.05 84.94-0.15 83.39-0.15L83.39-0.15Q81.84-0.15 80.02-0.05 78.19 0.05 76.74 0.2L76.74 0.2Q76.59-0.05 76.57-0.7 76.54-1.35 76.74-1.6L76.74-1.6Q77.09-1.65 77.77-1.73 78.44-1.8 79.09-2 79.74-2.2 79.84-2.5L79.84-2.5Q80.14-3.25 80.19-4.4 80.24-5.55 80.24-7.1L80.24-7.1 80.24-12.7Q80.24-12.95 80.22-13.78 80.19-14.6 80.09-15.48 79.99-16.35 79.79-16.7L79.79-16.7Q79.59-17.1 78.92-17.3 78.24-17.5 77.59-17.6 76.94-17.7 76.74-17.7L76.74-17.7Q76.69-17.75 76.64-18.13 76.59-18.5 76.64-18.85 76.69-19.2 76.79-19.2L76.79-19.2Q78.64-19.35 80.47-19.8 82.29-20.25 83.84-20.8 85.39-21.35 86.29-21.8L86.29-21.8Q86.54-21.8 86.84-21.48 87.14-21.15 87.14-20.95L87.14-20.95Q87.09-20.75 86.97-20.08 86.84-19.4 86.74-18.8 86.64-18.2 86.64-18.15L86.64-18.15Q86.64-17.9 86.69-17.85L86.69-17.85Q86.79-17.85 87.04-18.1L87.04-18.1Q87.74-18.9 88.92-19.75 90.09-20.6 91.42-21.2 92.74-21.8 93.84-21.8ZM114.74-28.65L114.74-20.9 120.29-20.9Q120.44-20.9 120.52-20.68 120.59-20.45 120.59-20.25L120.59-20.25Q120.59-19.9 120.24-19.38 119.89-18.85 119.49-18.6L119.49-18.6 114.74-18.6 114.74-6.5Q114.74-4.55 115.39-3.68 116.04-2.8 117.39-2.8L117.39-2.8Q118.24-2.8 119.07-3.33 119.89-3.85 119.99-3.95L119.99-3.95Q120.09-3.9 120.19-3.68 120.29-3.45 120.29-3.25L120.29-3.25Q120.29-3.05 120.17-2.75 120.04-2.45 119.94-2.35L119.94-2.35Q119.74-2.1 118.99-1.45 118.24-0.8 117.14-0.23 116.04 0.35 114.74 0.35L114.74 0.35Q113.24 0.35 111.77-0.3 110.29-0.95 109.34-2.53 108.39-4.1 108.39-6.8L108.39-6.8 108.39-18.6 104.94-18.6Q104.74-18.7 104.72-18.9 104.69-19.1 104.69-19.25L104.69-19.25Q105.09-19.8 105.44-20.18 105.79-20.55 106.24-20.9L106.24-20.9 108.39-20.9 108.39-23.5Q109.79-24.65 111.12-26.1 112.44-27.55 113.54-28.65L113.54-28.65Q113.94-28.9 114.32-28.9 114.69-28.9 114.74-28.65L114.74-28.65ZM123.79-13.05L123.79-13.05Q123.79-13.05 124.84-13.1 125.89-13.15 127.49-13.23 129.09-13.3 130.76-13.38 132.44-13.45 133.76-13.53 135.09-13.6 135.59-13.6L135.59-13.6Q135.74-13.6 135.84-13.55 135.94-13.5 135.94-13.2L135.94-13.2Q135.94-12.55 135.71-11.73 135.49-10.9 135.19-10.25L135.19-10.25Q134.04-10.2 132.11-10.1 130.19-10 127.94-9.9 125.69-9.8 123.44-9.7L123.44-9.7Q123.09-9.7 123.09-10.25L123.09-10.25Q123.09-10.95 123.31-11.73 123.54-12.5 123.79-13.05ZM146.19-32.05L146.19-32.05Q147.44-32.05 148.66-32.15 149.89-32.25 151.34-32.3L151.34-32.3Q151.89-31.15 152.86-28.95 153.84-26.75 155.09-23.9 156.34-21.05 157.76-17.88 159.19-14.7 160.54-11.6L160.54-11.6Q160.54-11.6 160.61-11.55 160.69-11.5 160.74-11.5L160.74-11.5Q160.79-11.5 160.86-11.63 160.94-11.75 160.94-11.8L160.94-11.8Q160.94-11.8 161.54-13.28 162.14-14.75 163.04-17.05 163.94-19.35 164.91-21.9 165.89-24.45 166.69-26.65L166.69-26.65Q167.09-27.7 167.46-28.98 167.84-30.25 168.09-31.2 168.34-32.15 168.34-32.15L168.34-32.15Q168.59-32.15 169.66-32.1 170.74-32.05 171.94-32.02 173.14-32 173.59-32L173.59-32Q174.84-32 176.34-32.13 177.84-32.25 179.29-32.3L179.29-32.3Q179.44-32.15 179.56-31.45 179.69-30.75 179.49-30.45L179.49-30.45Q179.19-30.45 178.26-30.33 177.34-30.2 176.94-29.95L176.94-29.95Q176.59-29.7 176.41-29.33 176.24-28.95 176.29-27.95L176.29-27.95Q176.34-26.7 176.41-24.23 176.49-21.75 176.59-18.75 176.69-15.75 176.79-12.75 176.89-9.75 176.99-7.4L176.99-7.4Q177.09-6 177.19-4.73 177.29-3.45 177.64-2.5L177.64-2.5Q177.79-2.15 178.46-1.95 179.14-1.75 179.84-1.68 180.54-1.6 180.74-1.6L180.74-1.6Q181.14-0.75 180.84 0.2L180.84 0.2Q179.39 0.1 177.59-0.05 175.79-0.2 174.19-0.2L174.19-0.2Q172.49-0.2 170.34-0.05 168.19 0.1 166.49 0.2L166.49 0.2Q166.34 0.05 166.31-0.63 166.29-1.3 166.39-1.6L166.39-1.6Q166.69-1.6 167.44-1.7 168.19-1.8 168.91-2 169.64-2.2 169.84-2.55L169.84-2.55Q170.04-2.85 170.14-3.38 170.24-3.9 170.24-4.25L170.24-4.25Q170.24-4.65 170.24-5.63 170.24-6.6 170.19-7.25L170.19-7.25 169.69-24.25Q169.69-24.35 169.64-24.95 169.59-25.55 169.34-25.55L169.34-25.55Q169.24-25.55 169.09-25.2L169.09-25.2 160.49-1.95Q160.44-1.75 160.09-1.25 159.74-0.75 159.29-0.33 158.84 0.1 158.39 0.1L158.39 0.1Q158.24 0.1 157.94 0L157.94 0 147.09-25.55Q146.99-22.5 146.91-20.38 146.84-18.25 146.78-16.68 146.74-15.1 146.69-13.65 146.64-12.2 146.59-10.53 146.53-8.85 146.44-6.55L146.44-6.55Q146.39-5.75 146.49-4.58 146.59-3.4 146.64-3.15L146.64-3.15Q146.74-2.75 147.34-2.45 147.94-2.15 148.71-1.98 149.49-1.8 150.11-1.7 150.74-1.6 150.89-1.6L150.89-1.6Q150.99-1.35 151.03-0.78 151.09-0.2 150.99 0.2L150.99 0.2Q149.53 0.1 148.03-0.05 146.53-0.2 144.94-0.2L144.94-0.2Q143.24-0.2 141.89-0.05 140.53 0.1 138.84 0.2L138.84 0.2Q138.69-0.05 138.69-0.63 138.69-1.2 138.78-1.55L138.78-1.55Q139.09-1.55 139.99-1.73 140.89-1.9 141.78-2.3 142.69-2.7 142.94-3.3L142.94-3.3Q143.03-3.55 143.16-4.42 143.28-5.3 143.39-6.25 143.49-7.2 143.49-7.6L143.49-7.6Q143.59-9.3 143.69-11.7 143.78-14.1 143.89-16.7 143.99-19.3 144.09-21.7 144.19-24.1 144.24-25.88 144.28-27.65 144.34-28.35L144.34-28.35Q144.34-28.6 144.31-28.9 144.28-29.2 144.09-29.45L144.09-29.45Q143.78-29.85 142.69-30.18 141.59-30.5 140.94-30.5L140.94-30.5Q140.74-30.8 140.81-31.53 140.89-32.25 140.94-32.3L140.94-32.3Q142.09-32.25 142.81-32.2 143.53-32.15 144.31-32.1 145.09-32.05 146.19-32.05ZM189.03-11.8L189.03-11.8Q189.03-9.25 189.78-7.63 190.53-6 191.63-5.15 192.73-4.3 193.91-3.98 195.08-3.65 195.88-3.65L195.88-3.65Q198.03-3.65 199.28-4.48 200.53-5.3 201.33-6.1L201.33-6.1Q201.58-6.05 201.76-5.75 201.93-5.45 201.93-5.2L201.93-5.2Q201.93-4.55 201.78-4.3L201.78-4.3Q201.33-3.65 200.13-2.5 198.93-1.35 197.11-0.45 195.28 0.45 192.93 0.45L192.93 0.45Q190.23 0.45 187.88-0.78 185.53-2 184.11-4.28 182.68-6.55 182.68-9.75L182.68-9.75Q182.68-12.05 183.58-14.23 184.48-16.4 186.01-18.13 187.53-19.85 189.48-20.85 191.43-21.85 193.53-21.85L193.53-21.85Q195.93-21.85 197.58-21.1 199.23-20.35 200.21-19.2 201.18-18.05 201.63-16.78 202.08-15.5 202.08-14.45L202.08-14.45Q202.08-13.65 201.71-13.05 201.33-12.45 200.78-12.4L200.78-12.4Q199.13-12.25 197.08-12.13 195.03-12 192.93-11.93 190.83-11.85 189.03-11.8ZM189.08-13.75L189.08-13.75Q189.23-13.75 190.06-13.78 190.88-13.8 191.96-13.88 193.03-13.95 193.98-14.03 194.93-14.1 195.38-14.15L195.38-14.15Q195.83-14.2 195.93-14.48 196.03-14.75 196.03-14.95L196.03-14.95Q196.03-16.1 195.73-17.2 195.43-18.3 194.78-19.05 194.13-19.8 193.03-19.8L193.03-19.8Q191.93-19.8 191.18-19.1 190.43-18.4 189.96-17.4 189.48-16.4 189.28-15.38 189.08-14.35 189.08-13.75Z" opacity="1" transform="matrix(1,0,0,1,0,0)" fill="#6936f5" class="wordmark-text-0" data-fill-palette-color="primary" id="text-0"></path></svg></g></svg></g></svg></g></svg></g><g><svg viewBox="0 0 178.29198981064175 170.22980449981992" height="170.22980449981992" width="178.29198981064175"><g><svg xmlns="http://www.w3.org/2000/svg" xmlns:xlink="http://www.w3.org/1999/xlink" version="1.1" x="0" y="0" viewBox="6.110000000000003 7.911 76.804 73.331" enable-background="new 0 0 90 90" xml:space="preserve" height="170.22980449981992" width="178.29198981064175" class="icon-icon-0" data-fill-palette-color="accent" id="icon-0"><g fill="#bb84e8" data-fill-palette-color="accent"><path d="M82.914 22.033c0-0.829-0.672-1.5-1.5-1.5H67.719c-0.828 0-1.5 0.671-1.5 1.5v5.902c0 0.118 0.017 0.232 0.043 0.342v6.422c-0.323-0.084-0.656-0.143-1.005-0.143-2.208 0-4.004 1.796-4.004 4.004s1.796 4.004 4.004 4.004 4.005-1.796 4.005-4.004c0-0.222-0.031-0.435-0.065-0.647 0.038-0.133 0.065-0.27 0.065-0.415v-8.063H79.9v5.264c-0.323-0.084-0.655-0.143-1.004-0.143-2.208 0-4.004 1.796-4.004 4.004s1.796 4.004 4.004 4.004S82.9 40.768 82.9 38.56c0-0.222-0.031-0.435-0.065-0.647 0.038-0.133 0.065-0.27 0.065-0.415v-9.427c0.004-0.045 0.014-0.089 0.014-0.136V22.033zM69.219 23.533h10.694v2.902H69.219V23.533zM65.257 39.565c-0.554 0-1.004-0.451-1.004-1.004s0.45-1.004 1.004-1.004 1.005 0.451 1.005 1.004S65.811 39.565 65.257 39.565zM78.896 39.565c-0.554 0-1.004-0.451-1.004-1.004s0.45-1.004 1.004-1.004S79.9 38.006 79.9 38.56 79.45 39.565 78.896 39.565z" fill="#bb84e8" data-fill-palette-color="accent"></path><path d="M14.119 36.287c0-0.489-0.101-0.952-0.262-1.385v-5.386l10.694-2.04v4.971c-0.343-0.096-0.698-0.164-1.071-0.164-2.208 0-4.005 1.796-4.005 4.004s1.797 4.004 4.005 4.004 4.004-1.796 4.004-4.004c0-0.166-0.029-0.323-0.049-0.484 0.075-0.178 0.116-0.373 0.116-0.579v-9.562V19.76c0-0.447-0.199-0.871-0.544-1.156-0.346-0.285-0.8-0.401-1.237-0.318l-13.694 2.612c-0.707 0.135-1.219 0.753-1.219 1.474v5.903 4.083c-0.241-0.046-0.489-0.075-0.743-0.075-2.208 0-4.004 1.796-4.004 4.004s1.796 4.004 4.004 4.004S14.119 38.495 14.119 36.287zM23.48 37.292c-0.554 0-1.005-0.451-1.005-1.004s0.451-1.004 1.005-1.004 1.004 0.45 1.004 1.004S24.034 37.292 23.48 37.292zM13.857 23.613l10.694-2.04v2.849l-10.694 2.04V23.613zM10.114 37.292c-0.554 0-1.004-0.451-1.004-1.004s0.45-1.004 1.004-1.004c0.371 0 0.683 0.211 0.857 0.511 0.022 0.053 0.052 0.102 0.079 0.151 0.039 0.107 0.069 0.22 0.069 0.341C11.119 36.841 10.667 37.292 10.114 37.292z" fill="#bb84e8" data-fill-palette-color="accent"></path><path d="M67.062 58.822c-0.013-9.595-6.093-17.793-14.602-20.96v-5.389c0-0.829-0.672-1.5-1.5-1.5h-4.662V9.411c0-0.829-0.672-1.5-1.5-1.5s-1.5 0.671-1.5 1.5v21.562h-4.854c-0.828 0-1.5 0.671-1.5 1.5v5.366c-8.54 3.151-14.647 11.366-14.66 20.983-0.03 0.118-0.051 0.24-0.051 0.367 0 0.149 0.029 0.291 0.069 0.427 0.405 11.993 10.281 21.626 22.37 21.626s21.966-9.633 22.37-21.626c0.041-0.136 0.069-0.278 0.069-0.427C67.113 59.062 67.092 58.941 67.062 58.822zM61.398 68.617h-4.939c0.706-2.413 1.148-5.082 1.269-7.927h6.242C63.699 63.562 62.788 66.245 61.398 68.617zM25.377 60.69h6.243c0.121 2.845 0.563 5.515 1.269 7.927h-4.94C26.559 66.245 25.648 63.562 25.377 60.69zM27.558 49.762h5.276c-0.689 2.417-1.113 5.087-1.219 7.927h-6.272C25.513 54.84 26.284 52.152 27.558 49.762zM46.173 46.762v-6.004c2.333 0.672 4.427 2.866 5.966 6.004H46.173zM53.347 49.762c0.773 2.376 1.265 5.07 1.388 7.927h-8.562v-7.927H53.347zM43.173 40.759v6.004h-5.965C38.748 43.625 40.841 41.431 43.173 40.759zM43.173 49.762v7.927h-8.561c0.123-2.857 0.615-5.551 1.388-7.927H43.173zM34.618 60.69h8.555v7.927h-7.108C35.273 66.247 34.758 63.554 34.618 60.69zM43.173 71.617v5.811c-2.284-0.658-4.34-2.776-5.87-5.811H43.173zM46.173 77.428v-5.811h5.871C50.514 74.652 48.458 76.77 46.173 77.428zM46.173 68.617V60.69h8.556c-0.14 2.864-0.655 5.557-1.447 7.927H46.173zM57.733 57.69c-0.106-2.841-0.531-5.511-1.219-7.927h5.133c0.046 0 0.09-0.01 0.135-0.014 1.278 2.393 2.051 5.086 2.222 7.941C64.004 57.69 57.733 57.69 57.733 57.69zM59.806 46.762h-4.325c-1.001-2.401-2.295-4.424-3.799-5.968C54.891 42.045 57.687 44.116 59.806 46.762zM39.945 33.973h9.516v3.011c-1.543-0.338-3.144-0.521-4.787-0.521-1.622 0-3.203 0.178-4.729 0.507V33.973zM37.666 40.794c-1.505 1.544-2.799 3.567-3.799 5.968H29.54C31.66 44.116 34.456 42.044 37.666 40.794zM30.114 71.617h3.839c0.832 1.948 1.857 3.643 3.032 5.029C34.333 75.495 31.997 73.761 30.114 71.617zM52.362 76.645c1.176-1.385 2.2-3.08 3.032-5.028h3.838C57.35 73.761 55.014 75.494 52.362 76.645z" fill="#bb84e8" data-fill-palette-color="accent"></path><path d="M20.295 47.815l-5.764-2.473c-0.766-0.328-1.644 0.026-1.971 0.787-0.326 0.761 0.026 1.643 0.787 1.97l5.764 2.473c0.193 0.083 0.394 0.122 0.591 0.122 0.582 0 1.136-0.341 1.38-0.909C21.409 49.023 21.056 48.141 20.295 47.815z" fill="#bb84e8" data-fill-palette-color="accent"></path><path d="M18.341 69.122l-5.764 2.473c-0.761 0.327-1.113 1.208-0.787 1.97 0.244 0.569 0.798 0.909 1.38 0.909 0.197 0 0.397-0.039 0.591-0.122l5.764-2.473c0.761-0.327 1.113-1.208 0.787-1.97C19.985 69.147 19.105 68.793 18.341 69.122z" fill="#bb84e8" data-fill-palette-color="accent"></path><path d="M12.664 61.353l6.271-0.013c0.829-0.002 1.499-0.675 1.497-1.503s-0.673-1.497-1.5-1.497c-0.001 0-0.002 0-0.003 0l-6.271 0.013c-0.829 0.002-1.499 0.675-1.497 1.503s0.673 1.497 1.5 1.497C12.663 61.353 12.664 61.353 12.664 61.353z" fill="#bb84e8" data-fill-palette-color="accent"></path><path d="M70.259 50.693c0.197 0 0.397-0.039 0.591-0.122l5.764-2.473c0.761-0.327 1.113-1.208 0.787-1.97-0.327-0.762-1.207-1.114-1.971-0.787l-5.764 2.473c-0.761 0.327-1.113 1.208-0.787 1.97C69.123 50.353 69.677 50.693 70.259 50.693z" fill="#bb84e8" data-fill-palette-color="accent"></path><path d="M75.383 71.594l-5.763-2.473c-0.766-0.33-1.645 0.026-1.971 0.787s0.026 1.643 0.787 1.97l5.763 2.473c0.193 0.083 0.394 0.122 0.591 0.122 0.582 0 1.136-0.341 1.38-0.909C76.497 72.803 76.144 71.921 75.383 71.594z" fill="#bb84e8" data-fill-palette-color="accent"></path><path d="M77.303 58.353l-6.271-0.013c-0.001 0-0.002 0-0.003 0-0.827 0-1.498 0.669-1.5 1.497-0.002 0.828 0.668 1.501 1.497 1.503l6.271 0.013c0 0 0.002 0 0.003 0 0.827 0 1.498-0.669 1.5-1.497C78.802 59.028 78.132 58.355 77.303 58.353z" fill="#bb84e8" data-fill-palette-color="accent"></path></g></svg></g></svg></g></svg></g><defs></defs></svg><rect width="395.52" height="114.27969795310467" fill="none" stroke="none" visibility="hidden"></rect></g></svg></g></svg>